<svg viewBox="0 0 382 17" xmlns="http://www.w3.org/2000/svg">
  <symbol viewBox="0 0 382 17" fill="none" id="curve" stroke="currentColor">
  <path stroke="#88BFFF" stroke-width="3" d="m2 2.5 11.81 12 11.81-12 11.82 12 11.81-12 11.81 12 11.81-12 11.82 12 11.81-12 11.81 12 11.81-12 11.82 12 11.81-12 11.81 12 11.81-12 11.82 12L191 2.5l11.81 12 11.81-12 11.82 12 11.81-12 11.81 12 11.81-12 11.82 12 11.81-12 11.81 12 11.81-12 11.82 12 11.81-12 11.81 12 11.81-12 11.82 12L380 2.5"/>
</svg>

<svg xmlns="http://www.w3.org/2000/svg" fill="none" viewBox="0 0 382 17">
  
</svg>